<?xml version="1.0" encoding="UTF-8"?>
<svg id="Layer_1" xmlns="http://www.w3.org/2000/svg" version="1.1" viewBox="0 0 359.8888889 68.2222222">
  <!-- Generator: Adobe Illustrator 29.1.0, SVG Export Plug-In . SVG Version: 2.1.0 Build 142)  -->
  <defs>
    <style>
      .st0 {
        fill: #020873;
      }
    </style>
  </defs>
  <path class="st0" d="M77.0026335,18.4428593c-1.0521216-1.0505606-2.3337119-1.5828655-3.9040893-1.5828655-1.4673506,0-2.7739171.552598-3.7667203,1.5844265-1.0505606,1.0521216-1.5828655,2.3337119-1.5828655,3.8119896v22.7710964c0,3.0439721-1.0927079,5.6805202-3.2500255,7.8378378-2.1588786,2.1573176-4.8125979,3.2500255-7.8862291,3.2500255-3.042411,0-5.6805202-1.0927079-7.8378378-3.2500255-2.1588786-2.1573176-3.2515866-4.7938657-3.2515866-7.8378378v-6.3361449c0-1.4782777-.5323049-2.759868-1.5688164-3.7979405-1.0084133-1.0458776-2.3165408-1.5984756-3.8728691-1.5984756-1.4782777,0-2.759868.5323049-3.8135506,1.5844265-1.0505606,1.0521216-1.5828655,2.3337119-1.5828655,3.8119896v6.3361449c0,3.0439721-1.0927079,5.6805202-3.2500255,7.8378378-2.1588786,2.1573176-4.7969878,3.2500255-7.8393988,3.2500255s-5.6805202-1.0927079-7.8378378-3.2500255c-2.1588786-2.1573176-3.2515866-4.7938657-3.2515866-7.8378378v-22.7710964c0-1.4767167-.5338659-2.759868-1.5859875-3.8135506-1.0521216-1.0505606-2.3181018-1.5828655-3.9025283-1.5828655-1.4470575,0-2.7130377.5323049-3.7667203,1.5844265-1.0505606,1.0521216-1.5844265,2.3352729-1.5844265,3.8119896v22.7710964c0,6.0333087,2.1604397,11.2502085,6.4188785,15.5086474s9.4768997,6.4188785,15.5102084,6.4188785c6.6998605,0,12.2539388-2.5132282,16.5279877-7.4725611,4.2490728,4.9593329,9.7891019,7.4725611,16.4889625,7.4725611,6.0333087,0,11.2517695-2.1604397,15.5102084-6.4188785s6.4188785-9.4753386,6.4188785-15.5086474v-22.7710964c0-1.4704727-.5135727-2.7489409-1.525108-3.7995015l-.0140491-.0140491Z"/>
  <path class="st0" d="M110.3661282,17.1650155c-6.907475,0-12.8549281,2.4445437-17.6753311,7.2649466-4.8204029,4.8188419-7.2649466,10.7054156-7.2649466,17.4942537,0,6.907475,2.4445437,12.8689772,7.2633856,17.7174784,4.8172809,4.8516232,10.764734,7.313338,17.6768921,7.313338,6.7903992,0,12.6769728-2.4617148,17.4942537-7.313338,4.8188419-4.8500621,7.2633856-10.8115643,7.2633856-17.7174784,0-6.7872772-2.4445437-12.6738508-7.2649466-17.4942537-4.8204029-4.8204029-10.7069766-7.2649466-17.4926927-7.2649466ZM124.148297,41.9242159c0,3.8525759-1.3721289,7.179091-4.0789226,9.8858846s-5.9708683,4.0789226-9.7032463,4.0789226c-3.9150164,0-7.2711907-1.3721289-9.9779843-4.0789226s-4.0789226-6.0317477-4.0789226-9.8858846c0-3.7885744,1.386178-7.0823083,4.1210699-9.7906629,2.7380138-2.7099156,6.0817001-4.0836056,9.935837-4.0836056,3.730817,0,6.9964527,1.3721289,9.7032463,4.0773615,2.7067936,2.7099156,4.0789226,6.0067715,4.0789226,9.796907Z"/>
  <path class="st0" d="M164.1523339,17.2555541c-6.0910661,0-11.3532353,2.1729277-15.6382113,6.4579038-4.284976,4.284976-6.4579038,9.5471452-6.4579038,15.6382113v22.0243086c0,1.5094979.5182558,2.8269915,1.5360351,3.9150164,1.0255844,1.102074,2.3680542,1.6858922,3.8837961,1.6858922,1.5110589,0,2.8504067-.5635251,3.868186-1.6234518,1.0287065-1.0630487,1.5516452-2.4023964,1.5516452-3.9774568v-22.0243086c0-3.1095345,1.105196-5.791352,3.2828068-7.9720848,2.1822938-2.1791718,4.8641112-3.2843678,7.9736458-3.2843678,1.523547,0,2.8363575-.5432319,3.8994063-1.6078416,1.0677317-1.0661707,1.6109637-2.3633711,1.6109637-3.8572589,0-1.4782777-.5619641-2.8004543-1.6250128-3.8244777-1.0661707-1.0287065-2.3742982-1.5500842-3.8853571-1.5500842Z"/>
  <path class="st0" d="M202.8622923,39.6623105l12.2633048-13.0594206c1.0224624-1.097391,1.5422792-2.3836643,1.5422792-3.8244777,0-1.4392524-.5213778-2.7270868-1.6015976-3.8822351-1.0396335-.963144-2.2806375-1.4533015-3.6902307-1.4533015-1.5454012,0-2.8582117.5307438-3.9306265,1.6062806l-20.1151917,21.8369872V7.3306442c0-1.4845218-.5291828-2.764551-1.5734994-3.8088676-1.0427556-1.0411945-2.3243458-1.5703774-3.8073066-1.5703774s-2.764551.5291828-3.8073066,1.5703774c-1.0287065,1.0255844-1.5719384,2.343078-1.5719384,3.8088676v54.0203574c0,1.4220813.5244998,2.6833784,1.5563283,3.7479882,1.0287065,1.0661707,2.350883,1.6312568,3.8229167,1.6312568s2.7942102-.5650861,3.8213557-1.6296958c1.0349505-1.0692927,1.5594503-2.3305899,1.5594503-3.7495492v-5.1747525l7.8565699-8.5371709,11.5655328,16.6481856c1.0864639,1.5984756,2.7255257,2.4429827,4.7376693,2.4429827.967827,0,1.9075558-.2638109,2.894115-.8491902,1.1660754-.8757273,1.9044338-2.0402418,2.1963429-3.4623231.2965921-1.4486185-.0124881-2.8394796-.8928985-4.0258482l-12.8252689-18.7305747Z"/>
  <path class="st0" d="M356.433024,57.6389167c-1.0849029-1.0146574-2.3977134-1.5297911-4.0320922-1.5297911-2.7317698-.001561-4.7782556-.7196262-6.0848221-2.1370245-2.7473799-2.9815316-2.3852253-8.4747304-2.3774202-8.6058553l.004683-17.3724949h8.0735505c1.5672554,0,2.900359-.5198168,3.9587247-1.5422792,1.0739758-1.0318285,1.6203297-2.3305899,1.6203297-3.85882,0-1.5094979-.5806962-2.8472846-1.6765261-3.869747-1.0895859-1.0146574-2.4023964-1.5297911-3.9025283-1.5297911l-8.0719895.001561V7.5023555c0-1.5719384-.5198168-2.905042-1.5422792-3.9587247-1.0193404-1.0599267-2.352444-1.6203297-3.8572589-1.6203297-1.51262,0-2.8504067.5806962-3.868186,1.6765261-1.0162184,1.0849029-1.5313521,2.3977134-1.5313521,3.9025283l.0109271,37.3534396c-.1123928,1.6718431-.3918138,10.3167237,5.2028507,16.4109119,3.4154927,3.7183289,8.1063317,5.6149577,13.9320259,5.6383729l.2403957.003122c1.5703774,0,2.903481-.5198168,3.9587247-1.5407182,1.0755368-1.0318285,1.6203297-2.3305899,1.6203297-3.85882,0-1.5110589-.5806962-2.8504067-1.6780872-3.869747Z"/>
  <path class="st0" d="M40.1038384,28.6948011c3.8843815,0,7.0333316-3.1485598,7.0333316-7.0331365s-3.1489501-7.0331365-7.0333316-7.0331365-7.0331365,3.1485598-7.0331365,7.0331365,3.1487549,7.0331365,7.0331365,7.0331365Z"/>
  <path class="st0" d="M261.7654931,23.3794015c-4.6112274-4.1038987-10.0856941-6.1862878-16.2719819-6.1862878-6.8731328,0-12.8049758,2.4148845-17.6316227,7.17753-4.829769,4.7704506-7.2805567,10.6133159-7.2805567,17.3693728,0,6.9371343,2.4492267,12.8861484,7.2789957,17.6831361,4.8235249,4.7954267,10.7569289,7.2274824,17.6331838,7.2274824,3.2859288,0,6.4750749-.6571858,9.4768997-1.9543862,2.9908977-1.2893953,5.655544-3.0611432,7.9564746-5.3011944,1.0318285-1.105196,1.5547673-2.4164455,1.5547673-3.8978452,0-1.5266691-.552598-2.7739171-1.5266691-3.593448-.9334848-1.0864639-2.208831-1.6375009-3.7948185-1.6375009-1.6468669,0-2.9534334.551037-3.8104286,1.5578893-2.8628947,2.6927445-6.0863831,4.000872-9.8562254,4.000872-3.3795895,0-6.3595601-1.0536826-8.8587392-3.1313887-2.1994649-1.8279442-3.6480834-4.007116-4.4020519-6.6342981h31.4824761c2.4367387,0,4.2069255-.6540637,5.2606081-1.9450201,1.0599267-1.2956394,1.3502748-3.175097.8726053-5.5119309-.7570905-6.0005275-3.4779332-11.1206446-8.0829166-15.2229823ZM236.6410161,31.0080638c2.4976181-2.1058043,5.4760277-3.171975,8.8524951-3.171975,3.2531476,0,6.1706777,1.0661707,8.6698568,3.171975,2.1666837,1.8263832,3.6449614,4.0711175,4.4051739,6.6842504h-26.3326998c.7586515-2.6131329,2.2369292-4.8578672,4.4051739-6.6842504Z"/>
  <path class="st0" d="M317.9119479,23.3794015c-4.6112274-4.1038987-10.0856941-6.1862878-16.2719819-6.1862878-6.8715718,0-12.8034148,2.4148845-17.6316227,7.17753-4.829769,4.7688896-7.2789957,10.6133159-7.2789957,17.3693728,0,6.9371343,2.4492267,12.8877094,7.2774347,17.6831361,4.825086,4.7954267,10.7584899,7.2274824,17.6331838,7.2274824,3.2859288,0,6.4750749-.6571858,9.4784607-1.9543862,2.9908977-1.2893953,5.655544-3.0611432,7.9564746-5.3011944,1.0318285-1.108318,1.5547673-2.4195675,1.5547673-3.8978452,0-1.525108-.551037-2.7707951-1.5266691-3.593448-.9334848-1.0864639-2.208831-1.6375009-3.7948185-1.6375009-1.6468669,0-2.9534334.551037-3.8104286,1.5578893-2.8628947,2.6927445-6.0879441,4.000872-9.8577864,4.000872-3.3780285,0-6.3579991-1.0536826-8.8571782-3.1313887-2.1666837-1.799846-3.6434004-4.0274092-4.4004909-6.6342981h31.4809151c2.4351776,0,4.2053645-.6540637,5.2606081-1.9450201,1.0599267-1.2956394,1.3487138-3.176658.8726053-5.5119309-.7570905-5.9989665-3.4779332-11.1206446-8.0844776-15.2229823ZM314.7149967,37.6923142h-26.3326998c.7586515-2.6115719,2.2369292-4.8563062,4.4067349-6.6842504,2.4976181-2.1058043,5.4760277-3.171975,8.8509341-3.171975,3.2999779,0,6.1363355,1.0365115,8.6698568,3.171975,2.1682447,1.8279442,3.6465224,4.0726785,4.4051739,6.6842504Z"/>
  <metadata>
    <sfw xmlns="http://ns.adobe.com/SaveForWeb/1.0/">
      <slices/>
      <sliceSourceBounds x="104.56" y="-139.31" width="356.44" height="65.05" bottomLeftOrigin="true"/>
    </sfw>
  </metadata>
</svg>