<svg width="33" height="32" viewBox="0 0 33 32" fill="none" xmlns="http://www.w3.org/2000/svg">
<path d="M20.4017 3.8817L11.5314 8.13968C10.8487 8.46738 10.1192 8.54948 9.37567 8.3829C8.88903 8.27388 8.64568 8.21938 8.44973 8.197C6.01657 7.91915 4.5 9.84488 4.5 12.0593V13.2746C4.5 15.4891 6.01657 17.4149 8.44973 17.137C8.64568 17.1146 8.88904 17.0601 9.37567 16.9511C10.1192 16.7845 10.8487 16.8666 11.5314 17.1943L20.4017 21.4523C22.4379 22.4298 23.456 22.9185 24.5912 22.5375C25.7263 22.1566 26.1159 21.3391 26.8952 19.7043C29.0349 15.2153 29.0349 10.1188 26.8952 5.6296C26.1159 3.9948 25.7263 3.1774 24.5912 2.79646C23.456 2.41552 22.4379 2.90424 20.4017 3.8817Z" stroke="white" stroke-width="2" stroke-linecap="round" stroke-linejoin="round"/>
<path d="M15.7801 27.6952L13.7916 29.334C9.30948 25.7792 9.85705 24.084 9.85705 17.334H11.3688C11.9823 21.1485 13.4294 22.9553 15.4262 24.2633C16.6562 25.0689 16.9098 26.764 15.7801 27.6952Z" stroke="white" stroke-width="2" stroke-linecap="round" stroke-linejoin="round"/>
<path d="M10.5 16.667V8.66699" stroke="white" stroke-width="2" stroke-linecap="round" stroke-linejoin="round"/>
</svg>
