<svg width="33" height="32" viewBox="0 0 33 32" fill="none" xmlns="http://www.w3.org/2000/svg">
<path d="M9.83594 24.0007V21.334M16.5026 24.0007V20.0007M23.1693 24.0007V17.334M3.83594 16.0007C3.83594 10.0295 3.83594 7.04397 5.69092 5.18897C7.54592 3.33398 10.5315 3.33398 16.5026 3.33398C22.4737 3.33398 25.4593 3.33398 27.3143 5.18897C29.1693 7.04397 29.1693 10.0295 29.1693 16.0007C29.1693 21.9717 29.1693 24.9573 27.3143 26.8124C25.4593 28.6673 22.4737 28.6673 16.5026 28.6673C10.5315 28.6673 7.54592 28.6673 5.69092 26.8124C3.83594 24.9573 3.83594 21.9717 3.83594 16.0007Z" stroke="white" stroke-width="2" stroke-linecap="round" stroke-linejoin="round"/>
<path d="M8.49219 15.3157C11.3657 15.4115 17.8814 14.9777 21.5875 9.09575M19.159 8.38512L21.6597 7.98264C21.9645 7.94383 22.4119 8.18445 22.5219 8.47129L23.1831 10.6559" stroke="white" stroke-width="2" stroke-linecap="round" stroke-linejoin="round"/>
</svg>
