<svg width="33" height="32" viewBox="0 0 33 32" fill="none" xmlns="http://www.w3.org/2000/svg">
<path d="M17.5365 18.1995L18.5924 20.3287C18.7364 20.6251 19.1204 20.9094 19.4444 20.9638L21.3581 21.2844C22.582 21.49 22.87 22.3854 21.9881 23.2684L20.5003 24.7686C20.2483 25.0227 20.1103 25.5126 20.1883 25.8635L20.6143 27.7204C20.9503 29.1903 20.1763 29.759 18.8864 28.9907L17.0927 27.92C16.7687 27.7266 16.2347 27.7266 15.9048 27.92L14.1109 28.9907C12.8271 29.759 12.0472 29.1843 12.3831 27.7204L12.8091 25.8635C12.8871 25.5126 12.7491 25.0227 12.4971 24.7686L11.0093 23.2684C10.1334 22.3854 10.4154 21.49 11.6392 21.2844L13.553 20.9638C13.8709 20.9094 14.2549 20.6251 14.3989 20.3287L15.4548 18.1995C16.0308 17.0442 16.9667 17.0442 17.5365 18.1995Z" stroke="white" stroke-width="2" stroke-linecap="round" stroke-linejoin="round"/>
<path d="M23.5143 2.68157H9.49082C8.41118 2.68157 6.98196 2.47166 6.24362 3.59404C5.83594 4.21374 5.83594 5.11046 5.83594 6.90393C5.83594 8.433 5.83594 9.19753 6.11083 9.84166C6.58032 10.9418 7.63003 11.4197 8.52976 11.9394L12.9249 14.4781C14.6805 15.4923 15.5583 15.9993 16.5026 15.9993C17.4469 15.9993 18.3247 15.4923 20.0803 14.4781L24.4754 11.9394C25.3751 11.4197 26.4249 10.9418 26.8943 9.84166C27.1693 9.19753 27.1693 8.433 27.1693 6.90393C27.1693 5.11046 27.1693 4.21374 26.7615 3.59404C26.0233 2.47166 24.5941 2.68157 23.5143 2.68157Z" stroke="white" stroke-width="2"/>
<path d="M16.5 2.66699V9.33366" stroke="white" stroke-width="2" stroke-linecap="round"/>
</svg>
