<svg width="33" height="32" viewBox="0 0 33 32" fill="none" xmlns="http://www.w3.org/2000/svg">
<path d="M16.4974 29.3327C9.1336 29.3327 3.16406 23.3631 3.16406 15.9993C3.16406 12.276 4.69026 8.90904 7.15122 6.49004M16.4974 29.3327C15.2134 28.3812 15.4183 27.2733 16.0625 26.1656C17.0529 24.4625 17.0529 24.4625 17.0529 22.1919C17.0529 19.9212 18.4022 18.8565 23.1641 19.8088C25.3037 20.2368 26.8629 17.2805 29.6405 18.2567M16.4974 29.3327C23.0918 29.3327 28.5681 24.5455 29.6405 18.2567M7.15122 6.49004C8.28361 6.60955 8.91762 7.2162 9.97068 8.3289C11.9699 10.4414 13.9691 10.6176 15.3021 9.91348C17.3013 8.85726 15.6213 7.14642 17.9677 6.21666C19.4062 5.6467 19.6803 4.154 18.9995 2.9004M7.15122 6.49004C9.55733 4.12496 12.857 2.66602 16.4974 2.66602C17.3526 2.66602 18.189 2.74654 18.9995 2.9004M29.6405 18.2567C29.7655 17.5229 29.8307 16.7688 29.8307 15.9993C29.8307 9.49078 25.1673 4.07142 18.9995 2.9004" stroke="white" stroke-width="2" stroke-linejoin="round"/>
</svg>
